<?xml version="1.0" standalone="no"?>
<!DOCTYPE svg PUBLIC "-//W3C//DTD SVG 20010904//EN"
 "http://www.w3.org/TR/2001/REC-SVG-20010904/DTD/svg10.dtd">
<svg version="1.0" xmlns="http://www.w3.org/2000/svg"
 width="264.000000pt" height="90.000000pt" viewBox="0 0 264.000000 90.000000"
 preserveAspectRatio="xMidYMid meet">

<g transform="translate(0.000000,90.000000) scale(0.100000,-0.100000)"
fill="#000000" stroke="none">
<path d="M1025 836 c-33 -8 -78 -22 -100 -32 l-40 -18 40 -4 c22 -2 97 2 166
8 271 27 640 -5 976 -86 15 -4 26 -4 22 -1 -10 12 -324 88 -469 113 -179 32
-495 43 -595 20z"/>
<path d="M1145 760 c-220 -19 -390 -71 -520 -159 l-30 -21 156 0 c128 0 166 3
212 19 76 26 230 57 357 72 167 19 576 6 775 -25 88 -13 161 -23 163 -21 4 4
-147 40 -298 70 -152 31 -314 53 -485 65 -154 11 -197 11 -330 0z"/>
<path d="M51 494 c-44 -56 -11 -145 52 -143 l32 2 -35 6 c-43 7 -65 46 -56 96
8 43 28 58 70 53 19 -2 32 0 30 4 -3 4 -20 8 -39 8 -24 0 -39 -7 -54 -26z"/>
<path d="M180 435 l0 -85 58 2 57 2 -52 3 c-53 4 -53 4 -53 39 0 33 1 34 43
35 l42 2 -40 6 c-36 5 -40 9 -43 38 -3 32 -3 32 50 36 l53 3 -57 2 -58 2 0
-85z"/>
<path d="M320 435 l0 -85 43 2 42 1 -37 4 -37 4 0 74 0 74 37 4 37 4 -42 1
-43 2 0 -85z"/>
<path d="M462 453 c-2 -81 10 -103 58 -103 48 0 60 22 58 103 l-2 72 -3 -70
c-4 -79 -14 -95 -54 -95 -37 0 -43 12 -50 95 l-6 70 -1 -72z"/>
<path d="M622 418 l-2 -108 58 2 57 1 -50 6 -50 6 -6 100 -5 100 -2 -107z"/>
<path d="M802 413 c-23 -60 -35 -99 -27 -88 8 11 18 25 23 30 5 6 9 18 9 27 0
24 33 108 43 108 8 0 42 -74 45 -100 2 -20 35 -83 41 -78 6 6 -77 208 -86 208
-4 0 -25 -48 -48 -107z"/>
<path d="M960 415 c0 -127 18 -142 22 -18 l3 86 60 -86 c33 -47 63 -86 68 -87
4 0 7 47 7 105 0 69 -4 105 -11 105 -7 0 -10 -27 -8 -80 2 -43 1 -81 -2 -84
-3 -3 -31 32 -63 79 -32 47 -62 85 -67 85 -5 0 -9 -47 -9 -105z"/>
<path d="M1160 415 l0 -105 48 0 c26 0 57 7 69 15 49 34 49 146 0 180 -12 8
-42 15 -69 15 l-48 0 0 -105z m115 70 c20 -19 25 -34 25 -74 0 -42 -4 -53 -27
-71 -19 -14 -38 -20 -62 -18 l-36 3 -3 79 c-2 44 -1 85 2 93 9 23 74 16 101
-12z"/>
<path d="M1351 473 c1 -30 4 -37 6 -20 2 15 7 27 11 27 4 0 21 -34 37 -76 17
-42 35 -75 40 -74 6 1 23 35 39 75 16 41 33 72 37 69 5 -3 9 -27 9 -53 0 -56
10 -111 19 -111 9 0 -12 197 -22 206 -10 11 -13 6 -45 -81 -16 -44 -33 -79
-38 -78 -5 1 -24 38 -43 83 -19 44 -38 80 -42 80 -5 0 -8 -21 -8 -47z"/>
<path d="M1650 517 c0 -3 -18 -51 -39 -106 -22 -56 -36 -101 -33 -101 11 0 38
57 57 117 9 29 20 55 25 58 11 7 54 -101 45 -114 -3 -6 -1 -11 5 -11 6 0 15
-12 21 -26 5 -15 12 -24 15 -21 8 8 -70 200 -83 205 -7 2 -13 1 -13 -1z"/>
<path d="M1786 504 c-32 -31 -11 -73 44 -89 104 -30 88 -105 -19 -91 -32 4
-41 3 -31 -4 24 -15 97 -12 114 6 37 36 10 83 -56 99 -14 4 -34 15 -44 26 -16
18 -16 20 2 40 15 17 27 20 61 16 24 -2 40 -1 37 4 -9 15 -91 10 -108 -7z"/>
<path d="M1965 511 l40 -6 6 -100 5 -100 2 102 2 102 38 4 c20 2 -1 4 -48 4
-56 0 -72 -2 -45 -6z"/>
<path d="M2120 415 l0 -105 73 2 72 2 -62 3 -63 4 0 44 0 44 53 4 52 3 -52 2
-53 2 0 45 0 44 63 4 62 3 -72 2 -73 2 0 -105z"/>
<path d="M2290 415 c0 -63 4 -105 10 -105 10 0 13 56 10 153 l-1 47 45 0 c39
0 48 -4 57 -24 14 -30 -3 -66 -31 -66 -11 0 -20 -3 -19 -7 2 -18 56 -97 69
-101 10 -3 8 3 -6 19 -43 48 -47 65 -19 93 51 52 23 96 -61 96 l-54 0 0 -105z"/>
<path d="M2482 508 c-13 -13 -15 -37 -6 -62 3 -8 28 -22 55 -31 59 -20 75 -42
52 -75 -14 -19 -22 -22 -65 -18 -29 3 -44 2 -36 -3 26 -17 94 -10 113 11 31
34 11 67 -55 93 -57 23 -72 45 -49 74 10 12 25 14 64 9 34 -4 45 -2 35 4 -21
14 -94 12 -108 -2z"/>
<path d="M414 496 c4 -10 0 -29 -8 -41 -14 -21 -14 -24 0 -29 11 -4 15 -15 12
-36 -4 -24 -2 -27 9 -19 17 15 16 34 -2 53 -12 12 -14 20 -5 36 8 15 8 25 0
38 -11 16 -11 15 -6 -2z"/>
<path d="M1343 365 c0 -33 2 -45 4 -27 2 18 2 45 0 60 -2 15 -4 0 -4 -33z"/>
<path d="M570 210 c0 -5 5 -10 11 -10 5 0 7 5 4 10 -3 6 -8 10 -11 10 -2 0 -4
-4 -4 -10z"/>
<path d="M521 164 c0 -11 3 -14 6 -6 3 7 2 16 -1 19 -3 4 -6 -2 -5 -13z"/>
<path d="M1693 145 c0 -22 2 -30 4 -17 2 12 2 30 0 40 -3 9 -5 -1 -4 -23z"/>
<path d="M1713 145 c0 -22 2 -30 4 -17 2 12 2 30 0 40 -3 9 -5 -1 -4 -23z"/>
<path d="M1120 131 c0 -6 4 -13 10 -16 6 -3 7 1 4 9 -7 18 -14 21 -14 7z"/>
<path d="M530 119 c0 -5 5 -7 10 -4 6 3 10 8 10 11 0 2 -4 4 -10 4 -5 0 -10
-5 -10 -11z"/>
</g>
</svg>
